<?xml version="1.0" encoding="UTF-8" standalone="no"?>
<svg
   xmlns:dc="http://purl.org/dc/elements/1.1/"
   xmlns:cc="http://creativecommons.org/ns#"
   xmlns:rdf="http://www.w3.org/1999/02/22-rdf-syntax-ns#"
   xmlns:svg="http://www.w3.org/2000/svg"
   xmlns="http://www.w3.org/2000/svg"
   id="svg8"
   version="1.1"
   viewBox="0 0 297 210"
   height="210mm"
   width="297mm">
  <defs
     id="defs2" />
  <metadata
     id="metadata5">
    <rdf:RDF>
      <cc:Work
         rdf:about="">
        <dc:format>image/svg+xml</dc:format>
        <dc:type
           rdf:resource="http://purl.org/dc/dcmitype/StillImage" />
        <dc:title></dc:title>
      </cc:Work>
    </rdf:RDF>
  </metadata>
  <g
     transform="translate(0,-87)"
     id="layer1">
    <path
       id="path3778"
       d="m 145.18323,264.83203 c -2.08279,-0.75985 -3.58527,-3.49671 -3.58527,-6.53076 0,-0.43928 -0.0589,-1.0922 -0.13039,-1.45099 l -0.13041,-0.65233 h -1.43513 -1.43517 v 4.27934 4.27936 h -1.04373 -1.04373 v -9.18496 -9.18492 h 1.04373 1.04373 v 3.86184 3.86185 h 1.44467 c 1.63501,0 1.51759,0.15224 1.78936,-2.31962 0.2512,-2.28499 1.75667,-4.56559 3.49143,-5.28914 1.02586,-0.42791 3.68541,-0.42763 4.71025,4.2e-4 1.59,0.66418 2.75412,2.26409 3.26095,4.48169 0.46739,2.04497 0.61204,5.0714 0.35212,7.36519 -0.55231,4.87324 -2.07237,6.65849 -5.75944,6.76436 -1.1087,0.0321 -1.97343,-0.0627 -2.57282,-0.28142 z m 4.46259,-2.25528 c 0.86955,-0.56979 1.33473,-1.9233 1.59258,-4.63401 0.27199,-2.86012 -0.006,-6.25769 -0.63036,-7.66614 -1.28534,-2.90569 -4.83702,-2.90377 -6.12296,0.003 -0.56359,1.27401 -0.83276,4.64044 -0.59548,7.44684 0.33671,3.98202 0.89423,5.00209 2.92707,5.35537 0.9418,0.16366 2.13265,-0.0494 2.82911,-0.50541 z m -98.85345,2.04262 c -9.56764,-0.92281 -18.199958,-3.94845 -25.850611,-9.06066 -3.741838,-2.50032 -6.600049,-4.88344 -9.422318,-7.85613 C 7.4867339,239.24179 2.3770224,228.51801 0.76836714,216.74446 0.283831,213.19847 0.283831,206.30432 0.76836714,202.75831 4.4064051,176.13197 25.911837,156.2934 52.723297,154.83038 l 2.661551,-0.14529 v 20.76941 20.76946 l -2.054037,0.12505 c -14.476518,0.88194 -26.513717,12.13637 -28.440502,26.59104 -0.344555,2.58472 -0.1275,8.20565 0.406322,10.52275 2.785319,12.09012 11.684086,20.92886 23.781146,23.62074 1.6946,0.37706 2.713593,0.45286 6.202678,0.46118 4.613627,0.0127 6.618874,-0.29839 10.308111,-1.59062 5.395587,-1.88983 11.602616,-6.42068 13.771995,-10.05295 4.663339,-7.80798 1.951123,-17.53565 -6.065008,-21.75282 -2.110082,-1.11011 -4.2311,-1.60314 -6.951425,-1.61589 -3.689137,-0.0172 -6.961544,1.12881 -9.678199,3.38963 -0.694541,0.57799 -1.314929,1.05092 -1.378638,1.05092 -0.06337,0 -0.09136,-3.87489 -0.06142,-8.61086 l 0.05433,-8.61088 20.092028,-0.0532 20.092045,-0.0532 v 18.98834 18.98836 l -2.557169,2.32862 c -4.3787,3.98736 -7.841569,6.39052 -12.890217,8.94562 -6.083508,3.07885 -12.400592,4.91634 -19.413609,5.64694 -1.832199,0.19089 -8.117382,0.23992 -9.811179,0.0764 z m 55.73585,-8.00393 v -8.1412 h -2.29623 -2.29624 v -1.04374 -1.04373 h 5.74059 5.74058 v 1.04373 1.04374 h -2.29622 -2.29624 v 8.1412 8.14121 h -1.14812 -1.14812 z m 70.97449,-1.04375 v -9.18492 h 1.87071 1.87067 l 0.20663,0.7828 c 1.21109,4.58821 3.56801,14.36494 3.57183,14.81626 0.001,0.31846 0.92535,-3.03762 2.05041,-7.45789 l 2.04554,-8.03682 h 1.86361 1.86363 l 0.0543,9.13276 0.0542,9.13277 h -1.15031 -1.1503 l -0.0156,-8.08904 -0.0155,-8.08898 -1.0378,3.96621 c -0.57075,2.18143 -1.51674,5.82147 -2.10209,8.089 l -1.06432,4.12281 h -1.27453 -1.27528 l -2.01949,-7.88027 -2.01949,-7.88026 -0.0161,7.88026 -0.0161,7.88027 h -1.14792 -1.1481 z m 39.87098,0 v -9.18492 h 4.59245 4.59248 v 1.04373 1.04374 h -3.54873 -3.54873 v 2.8181 2.81812 h 3.33998 3.33998 v 1.04373 1.04376 h -3.33998 -3.33998 v 3.2356 3.2356 h 3.54873 3.54873 v 1.04375 1.04375 h -4.59248 -4.59245 z m 32.98225,0 v -9.18492 h 1.14811 1.14812 v 3.86184 3.86185 h 3.33998 3.33996 v -3.87277 -3.87276 l 1.09594,0.0633 1.09594,0.0633 0.0542,9.13276 0.0543,9.13274 h -1.15032 -1.15031 v -4.27935 -4.27935 h -3.34 -3.33996 v 4.27935 4.27935 h -1.14813 -1.14812 z m 35.696,0 v -9.18492 h 1.04373 1.04374 v 3.83502 3.83503 l 2.24515,0.0925 c 3.88117,0.15996 5.44755,1.26532 5.95005,4.19887 0.51611,3.01281 -0.83174,5.49145 -3.36944,6.19633 -0.41533,0.11533 -2.14073,0.21036 -3.83418,0.21091 l -3.07905,7.9e-4 z m 6.56605,6.80176 c 1.07197,-0.44793 1.47075,-1.21674 1.47075,-2.83553 0,-2.4682 -0.84281,-3.18344 -3.89565,-3.30607 l -2.05368,-0.0826 v 3.25988 3.25988 h 1.88542 c 1.1543,0 2.15989,-0.11462 2.59316,-0.29567 z m -190.68224,-37.4878 v -15.23863 h 97.2768 97.2768 v 15.23863 15.23864 h -97.2768 -97.2768 z m 15.55731,8.66084 c 0.72045,-0.44543 1.17022,-0.92847 1.54864,-1.6632 0.52826,-1.0257 0.53397,-1.08961 0.59802,-6.77168 0.0735,-6.51411 -0.003,-6.95627 -1.42516,-8.24118 -1.14598,-1.03528 -2.73584,-1.46176 -4.93754,-1.32439 -3.2054,0.19998 -5.00715,1.79407 -5.23493,4.63161 l -0.10983,1.36802 h 2.22044 2.22045 v -1.01138 c 0,-1.4298 0.84262,-2.10502 2.086,-1.67157 0.86259,0.30072 1.04523,0.73061 1.04523,2.4605 v 1.47495 h -1.14808 -1.14813 v 1.65907 1.65909 l 1.09594,0.0634 1.09592,0.0634 0.0621,1.56315 c 0.0735,1.84209 -0.0338,2.37437 -0.5895,2.93026 -0.53164,0.53163 -1.25748,0.52406 -1.94964,-0.0205 -0.49965,-0.39304 -0.54999,-0.56512 -0.54999,-1.87874 v -1.44616 h -2.22171 -2.22168 l 0.11265,1.64331 c 0.12763,1.86235 0.63413,3.18777 1.5439,4.04008 1.02257,0.95804 2.00058,1.20349 4.57817,1.14905 2.16494,-0.046 2.37827,-0.0891 3.32854,-0.67662 z m 89.95181,0.50563 c 1.13241,-0.28514 2.28785,-1.2249 2.8896,-2.35016 0.43966,-0.82214 0.46711,-1.15263 0.53152,-6.38735 0.079,-6.41558 -0.007,-6.95615 -1.34089,-8.28853 -1.02588,-1.02588 -2.44594,-1.53411 -4.28646,-1.53411 -2.70554,0 -4.54209,0.86133 -5.44634,2.55437 -0.45364,0.84918 -0.47842,1.13656 -0.54041,6.27189 -0.0532,4.41554 -0.006,5.58439 0.26275,6.50951 0.49421,1.69992 1.52349,2.73278 3.24534,3.25653 0.79844,0.24289 3.67102,0.22321 4.68495,-0.0321 z m -3.29855,-3.33669 -0.54999,-0.43261 v -5.37997 c 0,-5.12635 0.02,-5.39787 0.42019,-5.76021 0.57595,-0.52128 1.58611,-0.48468 2.14857,0.0778 0.44721,0.44721 0.45812,0.58195 0.45812,5.68907 v 5.231 l -0.58573,0.50381 c -0.71754,0.61721 -1.17504,0.63444 -1.8911,0.0712 z m 21.91041,3.25649 c 1.19043,-0.35349 2.19533,-1.28226 2.70221,-2.49741 0.18852,-0.45196 0.39498,-1.69658 0.45874,-2.76592 l 0.11602,-1.94421 h -2.22252 -2.22251 v 1.67945 c 0,1.50483 -0.0533,1.73278 -0.5124,2.19187 -0.61453,0.61453 -1.35145,0.65595 -2.02169,0.11363 -0.49094,-0.39726 -0.49305,-0.41861 -0.55513,-5.63094 -0.0422,-3.5471 0.0127,-5.37156 0.16922,-5.66495 0.32977,-0.61625 1.10207,-0.86014 1.87282,-0.59143 0.80227,0.27966 1.04713,0.73317 1.04713,1.93929 v 0.95311 h 2.19185 2.19187 v -0.90149 c 0,-3.19034 -1.96679,-5.11076 -5.44522,-5.31681 -2.0483,-0.12138 -3.66959,0.3312 -4.77987,1.33431 -1.42506,1.28744 -1.49828,1.71593 -1.42499,8.33863 0.0641,5.7827 0.0692,5.84287 0.58644,6.75554 0.95116,1.67843 2.28728,2.29156 5.02428,2.30558 0.99544,0.004 2.24768,-0.12731 2.82377,-0.29825 z m -94.06119,-3.98147 v -3.87139 l 1.40904,0.0614 1.40906,0.0614 0.0569,3.80966 0.057,3.80968 h 2.08277 2.08278 v -8.97572 -8.9762 h -2.08748 -2.08749 v 3.44436 3.44434 h -1.46142 -1.46122 v -3.44434 -3.44436 h -2.19173 -2.19186 v 8.9762 8.97617 h 2.19186 2.19186 z m 25.46733,2.2014 v -1.66999 h -2.92979 -2.92978 l 0.0595,-2.13967 0.0595,-2.13968 2.55719,-0.0589 2.55717,-0.0589 v -1.66355 -1.66357 h -2.60946 -2.60936 v -1.77379 -1.77437 h 2.92248 2.9225 v -1.66998 -1.66998 h -5.00993 -5.00997 v 8.97622 8.97618 h 5.00997 5.00995 z m 11.89865,-1.87872 v -3.54874 l 1.82656,-0.006 c 2.05018,-0.006 3.10914,-0.36465 4.05952,-1.37815 0.92851,-0.99019 1.21184,-1.95053 1.20679,-4.0902 -0.004,-2.2667 -0.35633,-3.25254 -1.52257,-4.27646 -1.09327,-0.95989 -1.88979,-1.10308 -6.14435,-1.10437 l -3.80967,-7.7e-4 v 8.97634 8.97618 h 2.19185 2.19187 z m 0,-9.00334 v -2.32338 l 0.96277,0.10855 c 1.42124,0.16018 1.85535,0.69035 1.85535,2.26589 0,1.12697 -0.064,1.31964 -0.58575,1.76856 -0.40505,0.34841 -0.83964,0.50381 -1.40903,0.50381 h -0.82337 z m 17.95236,5.24586 v -7.30621 h 2.9225 2.92247 v -1.66999 -1.66997 h -5.00995 -5.00997 v 8.97617 8.97619 h 2.08747 2.08748 z m 57.45153,7.08825 c 1.01429,-0.2817 1.95505,-1.08988 2.4906,-2.13961 0.60711,-1.19009 0.75339,-3.67053 0.30699,-5.2061 -0.67705,-2.32886 -2.03958,-3.23925 -5.14958,-3.44076 l -1.86868,-0.12095 v -1.84784 -1.84784 h 2.81811 2.8181 v -1.5656 -1.5656 h -4.90559 -4.9056 v 8.97617 8.97619 l 3.80966,-0.001 c 2.09533,-6.3e-4 4.159,-0.0981 4.58597,-0.21679 z m -4.22065,-5.20952 v -2.29623 h 0.94931 c 0.74511,0 1.05368,0.11249 1.43418,0.52316 0.89903,0.97009 0.81938,3.07683 -0.14189,3.75009 -0.25071,0.17558 -0.85766,0.31923 -1.34875,0.31923 h -0.89289 z m 23.69476,5.03817 c 1.0524,-0.47814 2.10129,-1.6579 2.38626,-2.68404 0.1204,-0.43372 0.21894,-1.49305 0.21894,-2.35413 0,-1.99539 -0.271,-2.95253 -1.10498,-3.90236 -0.92224,-1.05038 -2.11322,-1.52226 -4.21682,-1.67072 l -1.77332,-0.12505 v -3.41334 -3.41333 h -2.19185 -2.19184 v 8.97619 8.97617 l 4.0184,-0.004 c 3.43476,-0.003 4.13994,-0.0595 4.85519,-0.38477 z m -4.48989,-5.03817 v -2.29623 h 0.74433 c 0.40939,0 0.92506,0.0967 1.14597,0.21495 1.16711,0.62464 1.35626,3.00138 0.31041,3.90096 -0.37445,0.32206 -0.82095,0.47659 -1.37738,0.47659 h -0.82335 z m 13.35988,-3.54873 v -8.97617 h -2.19185 -2.19186 v 8.97617 8.97619 h 2.19186 2.19185 z m 13.98616,1.67 v -7.30621 h 1.56561 1.56561 v -1.66999 -1.66997 h -5.32308 -5.32308 v 1.66997 1.66999 h 1.77436 1.77436 v 7.30621 7.30619 h 1.98312 1.9831 z M 73.386258,203.74988 c -7.739755,-11.86302 -12.582294,-26.4448 -13.636892,-41.06318 -0.302939,-4.1998 -0.138382,-12.58091 0.322011,-16.39484 1.474477,-12.21527 4.933544,-22.81137 10.971416,-33.60856 1.564455,-2.79764 4.020225,-6.78435 4.179085,-6.78435 0.18601,0 3.778145,5.93034 5.292641,8.7377 4.365598,8.09235 6.902353,15.19181 8.663014,24.24463 1.48073,7.61351 2.025462,13.43896 1.834843,19.62236 -0.404732,13.12896 -3.519498,25.49308 -9.439556,37.47036 -2.293593,4.64033 -5.78031,10.33303 -6.32886,10.33303 -0.104125,0 -0.940097,-1.1507 -1.857702,-2.55715 z m 4.101636,-6.73215 c 2.808868,-8.42306 2.709165,-16.74726 -0.308761,-25.78043 -0.402735,-1.20552 -0.997935,-2.75549 -1.322619,-3.44436 l -0.590337,-1.25248 -0.829683,1.77437 c -1.747477,3.73715 -3.017653,8.56028 -3.424094,13.00197 -0.390815,4.27093 0.221549,9.86183 1.60148,14.62171 0.537684,1.85468 2.052373,5.63161 2.47477,6.17095 0.29745,0.37971 1.245881,-1.63302 2.399255,-5.09173 z M 65.184099,162.78299 c 0.805839,-8.23042 2.788359,-16.15398 6.215391,-24.84109 1.272344,-3.22521 3.505328,-7.82804 3.797649,-7.82804 0.288524,0 2.773717,5.19711 4.04274,8.45428 1.401459,3.59715 2.829946,7.90595 3.794578,11.44574 1.455165,5.33992 2.598467,14.11765 2.640288,20.27097 0.02384,3.51344 0.164221,3.32712 0.69803,-0.92628 1.941825,-15.47386 -0.07524,-30.75525 -5.882269,-44.56315 -1.121784,-2.66739 -4.55401,-9.64767 -5.120584,-10.41393 -0.261856,-0.35417 -0.431678,-0.0994 -1.879421,2.81812 -5.075366,10.22814 -8.247875,20.49011 -9.542535,30.86661 -0.811404,6.50322 -0.612935,16.52821 0.469046,23.69295 l 0.252208,1.66998 0.134831,-4.07058 c 0.07418,-2.23884 0.245223,-5.19786 0.380058,-6.57558 z m 36.751651,16.28238 v -24.3192 h 9.28931 9.28931 v 3.13123 3.13122 h -4.38371 -4.38372 v 21.18797 21.18797 h -4.90559 -4.9056 z m 18.16112,23.96538 c 0,-0.41322 4.73543,-46.08207 4.91466,-47.3974 l 0.12086,-0.88718 h 7.7109 c 6.61958,0 7.71092,0.0427 7.71092,0.30459 0,0.36083 4.73272,45.89802 4.92034,47.34221 l 0.12885,0.99157 h -4.81683 -4.81683 l -0.0969,-0.46973 c -0.0533,-0.25829 -0.24717,-2.86506 -0.43074,-5.79278 -0.18357,-2.92769 -0.38083,-5.62837 -0.43839,-6.0015 l -0.10451,-0.67841 h -2.1446 -2.14459 l -0.35838,5.37528 c -0.19711,2.9564 -0.41283,5.86844 -0.47936,6.4712 l -0.12097,1.09594 h -4.77717 c -4.3514,0 -4.77716,-0.0316 -4.77716,-0.35385 z m 14.47552,-18.59012 c -0.0355,-0.31575 -0.40617,-5.69362 -0.82382,-11.95085 -0.4176,-6.25724 -0.79497,-11.41593 -0.83863,-11.46377 -0.0433,-0.0482 -0.12907,-0.0372 -0.18968,0.0232 -0.0608,0.0607 -0.43239,4.84359 -0.82611,10.62879 -0.39369,5.78517 -0.77251,11.1526 -0.84175,11.92756 l -0.12591,1.40906 h 1.85524 1.8552 z m 18.8688,18.72401 c -1.68449,-0.41233 -3.01312,-1.34787 -3.85513,-2.71455 -0.93521,-1.518 -1.09939,-2.81648 -1.09939,-8.69492 v -5.48799 h 4.90559 4.9056 v 4.9056 c 0,4.62724 0.0238,4.92928 0.41753,5.32309 0.52162,0.52161 1.49494,0.53945 1.95077,0.0361 0.30631,-0.33854 0.34546,-1.14026 0.34546,-7.08143 v -6.69968 l -0.52677,-0.62606 c -0.67909,-0.80705 -1.9066,-1.07599 -4.91097,-1.07599 h -2.28594 v -2.69098 -2.69097 l 3.079,-0.0825 c 4.85852,-0.13012 4.64468,0.23153 4.64468,-7.8528 0,-5.57832 -0.0287,-6.05768 -0.38173,-6.37719 -0.51783,-0.46861 -1.40732,-0.43518 -1.91447,0.072 -0.39032,0.3903 -0.41755,0.69582 -0.41755,4.69684 v 4.27934 h -4.90558 -4.90561 v -4.75736 c 0,-3.6068 0.0777,-5.05535 0.32091,-5.98952 0.55309,-2.12358 1.56263,-3.37553 3.43653,-4.26183 1.13495,-0.53686 1.21314,-0.54379 6.81632,-0.6125 4.66584,-0.0569 5.89734,-0.0113 6.96372,0.26246 2.39615,0.61384 3.77357,1.95431 4.52025,4.39894 0.33414,1.094 0.38271,2.03439 0.38271,7.41106 0,5.33781 -0.0488,6.298 -0.36698,7.20844 -0.74318,2.1273 -2.52778,3.47313 -5.06606,3.82049 l -1.24693,0.17066 1.25249,0.16493 c 2.52031,0.33189 4.42007,1.6686 5.11253,3.59721 0.37918,1.05614 0.55233,13.40432 0.21817,15.55824 -0.43633,2.81209 -1.78881,4.70371 -3.94595,5.51886 -0.82379,0.3113 -1.83395,0.37286 -6.81216,0.4151 -3.21473,0.0278 -6.19869,-0.0372 -6.63101,-0.14288 z m 22.48928,-0.0371 c -0.0557,-0.14558 -0.0767,-11.06754 -0.0471,-24.27089 l 0.0539,-24.00605 h 11.27244 11.27239 v 24.2148 24.21483 h -4.90558 -4.90558 l -0.0533,-21.13578 -0.0532,-21.13578 h -1.35488 -1.35489 l -0.0532,21.13578 -0.0532,21.13578 -4.85848,0.0557 c -3.7737,0.0439 -4.88098,-0.003 -4.95932,-0.20875 z m 28.08329,-24.06215 v -24.3192 h 8.20172 c 8.98892,0 9.90636,0.0965 11.52502,1.21209 1.21202,0.83533 2.10672,2.29063 2.50281,4.07106 0.29113,1.30854 0.32894,2.9053 0.27311,11.52994 -0.0645,9.98452 -0.0662,10.01438 -0.56135,11.24662 -0.6324,1.57361 -1.82103,2.86318 -3.2109,3.48358 -0.99039,0.4421 -1.45237,0.49427 -5.00514,0.56506 l -3.91405,0.078 v 8.22602 8.22601 h -4.9056 -4.90559 z m 12.13993,1.78606 c 0.57102,-0.70518 0.62287,-1.68598 0.55409,-10.48474 l -0.0647,-8.28118 -0.50604,-0.5384 c -0.39269,-0.41776 -0.70843,-0.5384 -1.40905,-0.5384 H 213.825 v 10.25585 10.25581 l 0.98331,-0.11095 c 0.65926,-0.0743 1.10267,-0.2582 1.34543,-0.55801 z m 19.95193,22.31321 c -2.0337,-0.49776 -3.696,-1.98936 -4.433,-3.97772 -0.40578,-1.0948 -0.41715,-1.64519 -0.41715,-20.22593 v -19.10047 l 0.58535,-1.25248 c 0.66674,-1.42659 1.58591,-2.47383 2.65538,-3.02539 1.41479,-0.72961 2.98966,-0.87299 8.65794,-0.78825 4.5146,0.0675 5.59012,0.14237 6.39465,0.4453 2.06782,0.77854 3.43438,2.60343 3.91891,5.23327 0.15367,0.83376 0.22703,6.94057 0.22458,18.68298 -0.003,18.90795 -0.0255,19.31137 -1.13831,21.21016 -0.65667,1.12049 -1.78032,2.06212 -3.02133,2.53184 -0.80442,0.3045 -1.85215,0.36764 -6.79601,0.40956 -3.21474,0.0278 -6.19869,-0.0372 -6.631,-0.14287 z m 7.27708,-6.6907 c 0.38422,-0.42458 0.39769,-1.0162 0.39769,-17.51295 0,-16.49675 -0.0127,-17.08838 -0.39769,-17.51296 -0.50453,-0.55743 -1.45699,-0.56788 -2.00294,-0.0215 -0.41073,0.41067 -0.41755,0.69582 -0.41755,17.53485 0,16.83905 0.006,17.12418 0.41755,17.53489 0.54598,0.546 1.49845,0.53557 2.00294,-0.0215 z m 15.11444,-17.40857 v -24.3192 h 6.34247 c 5.86494,0 6.34967,0.0278 6.43789,0.36531 0.0528,0.20093 1.44568,7.66439 3.09598,16.58552 1.65032,8.92111 3.04188,16.17888 3.09239,16.1284 0.0505,-0.0505 1.46287,-7.49049 3.13863,-16.53333 l 3.04683,-16.44153 6.419,-0.0548 6.41902,-0.0549 v 24.326 24.32599 l -4.95777,-0.0557 -4.95778,-0.0563 -0.10445,-15.06535 -0.10447,-15.06535 -2.37391,14.54349 c -1.30563,7.99891 -2.42112,14.80179 -2.47888,15.11753 l -0.10516,0.57402 h -3.93614 c -3.91081,0 -3.93686,-0.003 -4.04409,-0.46971 -0.0595,-0.25831 -1.1463,-6.85738 -2.4154,-14.66457 -1.26909,-7.8072 -2.3891,-14.42975 -2.4889,-14.71677 -0.10616,-0.30538 -0.18834,5.77867 -0.19799,14.66458 l -0.0167,15.18644 h -4.90557 -4.90561 z"
       style="fill:#0072bd;fill-opacity:0.95979899;stroke-width:0.2087485" />
    <path
       id="path3776"
       d=""
       style="fill:#000000;stroke-width:0.26458332" />
  </g>
</svg>
