<svg width="28" height="28" viewBox="0 0 28 28" fill="none" xmlns="http://www.w3.org/2000/svg">
<g clip-path="url(#clip0)">
<rect width="28" height="28" rx="7" fill="white"/>
<path d="M20.9611 0.0107422H7.01665C3.15305 0.0107422 0 3.1663 0 7.03296V21.0107C0 24.8552 3.15305 28.0107 7.01665 28.0107H20.9833C24.8469 28.0107 28 24.8552 28 20.9885V7.03296C27.9778 3.1663 24.8247 0.0107422 20.9611 0.0107422ZM7.59397 22.7219C6.30611 22.7219 5.26249 21.6774 5.26249 20.4107C5.26249 19.1219 6.30611 18.0996 7.59397 18.0996C8.88184 18.0996 9.92546 19.1441 9.92546 20.4107C9.92546 21.6774 8.88184 22.7219 7.59397 22.7219ZM13.4338 22.6774C13.4338 20.4552 12.6122 18.4552 11.0801 16.9219C9.52577 15.3663 7.54956 14.5663 5.3291 14.5663V11.2107C11.5464 11.2107 16.7867 16.4552 16.7867 22.6774H13.4338ZM19.3624 22.6774C19.3624 14.8996 13.1007 8.63296 5.3291 8.63296V5.27741C14.8771 5.27741 22.7153 13.1219 22.7153 22.6774H19.3624Z" fill="url(#paint0_linear)"/>
</g>
<defs>
<linearGradient id="paint0_linear" x1="0" y1="0.0107422" x2="7.14659" y2="32.2942" gradientUnits="userSpaceOnUse">
<stop stop-color="#FF951E"/>
<stop offset="1" stop-color="#FF7700"/>
</linearGradient>
<clipPath id="clip0">
<rect width="28" height="28" rx="7" fill="white"/>
</clipPath>
</defs>
</svg>
