<?xml version="1.0" encoding="UTF-8"?>
<!DOCTYPE svg PUBLIC "-//W3C//DTD SVG 1.1//EN" "http://www.w3.org/Graphics/SVG/1.1/DTD/svg11.dtd">
<!-- Creator: CorelDRAW 2020 (64-Bit) -->
<svg xmlns="http://www.w3.org/2000/svg" xml:space="preserve" width="28px" height="28px" version="1.1" style="shape-rendering:geometricPrecision; text-rendering:geometricPrecision; image-rendering:optimizeQuality; fill-rule:evenodd; clip-rule:evenodd"
viewBox="0 0 28 28"
 xmlns:xlink="http://www.w3.org/1999/xlink"
 xmlns:xodm="http://www.corel.com/coreldraw/odm/2003">
 <defs>
  <style type="text/css">
   <![CDATA[
    .fil2 {fill:#FEFEFE;fill-rule:nonzero}
    .fil1 {fill:#1C93E3;fill-rule:nonzero}
    .fil0 {fill:white;fill-rule:nonzero}
   ]]>
  </style>
 </defs>
 <g id="Слой_x0020_1">
  <metadata id="CorelCorpID_0Corel-Layer"/>
  <path class="fil0" d="M7.04 0.08l13.92 0c3.84,0 6.96,3.12 6.96,6.96l0 13.92c0,3.84 -3.12,6.96 -6.96,6.96l-13.92 0c-3.84,0 -6.96,-3.12 -6.96,-6.96l0 -13.92c0,-3.84 3.12,-6.96 6.96,-6.96z"/>
  <path class="fil0" d="M7.04 0.08l13.9 0 0.02 0 0.16 0c3.7,0.1 6.7,3.1 6.8,6.8l0 0.16 0 0.02 0 13.88 0 0.02 0 0.16c-0.1,3.7 -3.1,6.7 -6.8,6.8l0 0 -0.16 0 -0.02 0 -13.9 0 -0.18 0 0 0 -0.18 -0.01 0 0 -0.17 -0.01 -0.01 0 -0.17 -0.01c-3.26,-0.34 -5.87,-2.95 -6.21,-6.21l0 -0.01 -0.01 0 -0.01 -0.17 0 -0.01 -0.01 -0.17 0 0 -0.01 -0.18 0 0 0 -0.18 0 -13.9 0 -0.02 0 -0.16c0.09,-3.52 2.81,-6.41 6.25,-6.77l0 0 0.17 -0.01 0.01 0 0.17 -0.01 0 0 0.18 -0.01 0 0 0.18 0 0 0 0 0zm4.43 9.01c0,-1.39 1.12,-2.51 2.5,-2.51 1.37,0 2.49,1.12 2.49,2.51 0,1.38 -1.12,2.49 -2.49,2.49 -1.38,0 -2.5,-1.12 -2.5,-2.49zm-2.59 0c0,2.79 2.29,5.07 5.09,5.07 2.8,0 5.08,-2.27 5.08,-5.07 0,-2.81 -2.28,-5.08 -5.08,-5.08 -2.8,0 -5.09,2.26 -5.09,5.08zm10.94 5.68c-0.29,-0.57 -1.08,-1.05 -2.14,-0.22 0,0 -1.42,1.12 -3.71,1.12 -2.3,0 -3.72,-1.12 -3.72,-1.12 -1.05,-0.83 -1.85,-0.35 -2.14,0.22 -0.49,1.01 0.07,1.49 1.34,2.32 1.09,0.7 2.59,0.95 3.55,1.05l-0.81 0.81c-1.14,1.13 -2.22,2.23 -2.99,2.99 -1.1,1.11 0.67,2.87 1.78,1.79l2.99 -3c1.14,1.14 2.24,2.24 2.99,3 1.11,1.08 2.88,-0.67 1.79,-1.79l-2.98 -2.99 -0.82 -0.81c0.97,-0.1 2.45,-0.37 3.52,-1.05 1.28,-0.83 1.84,-1.32 1.35,-2.32z"/>
  <path class="fil0" d="M7.04 0.08l13.92 0c3.84,0 6.96,3.12 6.96,6.96l0 13.92c0,3.84 -3.12,6.96 -6.96,6.96l-13.92 0c-3.84,0 -6.96,-3.12 -6.96,-6.96l0 -13.92c0,-3.84 3.12,-6.96 6.96,-6.96z"/>
  <path class="fil1" d="M20.94 0.08l-13.9 0c-3.82,0 -6.96,3.14 -6.96,6.98l0 13.9c0,3.82 3.14,6.96 6.96,6.96l13.9 0c3.84,0 6.98,-3.14 6.98,-6.98l0 -13.88c0,-3.84 -3.14,-6.98 -6.98,-6.98z"/>
  <path class="fil2" d="M21.99 8.49l-2.43 11.44c-0.18,0.8 -0.66,1 -1.33,0.62l-3.7 -2.72 -1.78 1.71c-0.2,0.2 -0.36,0.37 -0.74,0.37l0.26 -3.77 6.85 -6.18c0.3,-0.27 -0.07,-0.42 -0.46,-0.15l-8.47 5.33 -3.64 -1.14c-0.8,-0.25 -0.81,-0.79 0.16,-1.17l14.26 -5.5c0.66,-0.24 1.23,0.15 1.02,1.16l0 0z"/>
 </g>
</svg>
