<svg width="28" height="28" viewBox="0 0 28 28" fill="none" xmlns="http://www.w3.org/2000/svg">
<rect width="28" height="28" rx="7" fill="white"/>
<rect width="28" height="28" rx="7" fill="white"/>
<path fill-rule="evenodd" clip-rule="evenodd" d="M7 0C3.13399 0 0 3.13428 0 7V21C0 24.8657 3.13399 28 7 28H21C24.866 28 28 24.8657 28 21V7C28 3.13428 24.866 0 21 0H7ZM21.313 16.224C22.8064 17.7415 23.1167 18.481 23.167 18.5721C23.7854 19.6955 22.4808 19.7843 22.4808 19.7843L19.9876 19.8231C19.9876 19.8231 19.4519 19.9393 18.7473 19.4084C18.3787 19.1304 18.0184 18.6781 17.675 18.2474C17.1499 17.5877 16.6646 16.9782 16.2504 17.1217C15.555 17.3633 15.5772 19.0028 15.5772 19.0028C15.5772 19.0028 15.5831 19.3537 15.4244 19.5405C15.2528 19.7433 14.9157 19.7843 14.9157 19.7843H13.8003C13.8003 19.7843 11.3384 19.9461 9.16941 17.4738C6.8056 14.7759 4.71708 9.42448 4.71708 9.42448C4.71708 9.42448 4.6651 9.27295 4.66667 9.12028C4.66752 9.04167 4.6829 8.96191 4.72762 8.90381C4.87459 8.71354 5.27478 8.70101 5.27478 8.70101L7.94194 8.68278C7.94194 8.68278 8.01941 8.69759 8.11896 8.73519C8.19914 8.76481 8.29356 8.80924 8.37374 8.87305C8.52185 8.99268 8.60474 9.21484 8.60474 9.21484C8.60474 9.21484 9.0364 10.41 9.60691 11.4901C10.7212 13.6001 11.2404 14.0615 11.6197 13.8348C12.1715 13.5055 12.0058 10.8532 12.0058 10.8532C12.0058 10.8532 12.0163 9.88932 11.728 9.46094C11.5829 9.24447 11.3541 9.12825 11.1609 9.06559C11.0576 9.03255 10.9644 9.01432 10.8998 9.00521C10.7492 8.98356 10.9953 8.60075 11.315 8.42985C11.7946 8.1735 12.6428 8.15755 13.644 8.16895C14.4245 8.17806 14.6486 8.23161 14.9542 8.3125C15.8736 8.55518 15.562 9.49512 15.562 11.7476L15.5556 12.1178C15.5391 12.7809 15.52 13.5397 15.9179 13.8211C16.1221 13.9658 16.6226 13.8428 17.8723 11.5174C18.465 10.4157 18.9095 9.12028 18.9095 9.12028C18.9095 9.12028 19.0063 8.89014 19.1569 8.79102C19.312 8.68962 19.5197 8.72038 19.5197 8.72038L22.3246 8.70215C22.3246 8.70215 23.1681 8.59277 23.3046 9.00863C23.4481 9.44613 22.9895 10.4681 21.8427 12.1429C20.7482 13.7402 20.2189 14.3224 20.2744 14.842C20.3144 15.2157 20.6582 15.5575 21.313 16.224Z" fill="#141029" fill-opacity="0.75"/>
</svg>
